<?xml version="1.0" standalone="no"?>
<!DOCTYPE svg PUBLIC "-//W3C//DTD SVG 20010904//EN"
 "http://www.w3.org/TR/2001/REC-SVG-20010904/DTD/svg10.dtd">
<svg version="1.0" xmlns="http://www.w3.org/2000/svg"
 width="64.000000pt" height="64.000000pt" viewBox="0 0 64.000000 64.000000"
 preserveAspectRatio="xMidYMid meet">

<g transform="translate(0.000000,64.000000) scale(0.100000,-0.100000)"
fill="#000000" stroke="none">
<path d="M122 568 c-9 -9 -12 -73 -12 -228 0 -221 3 -240 40 -240 8 0 21 -9
28 -20 11 -18 23 -20 122 -20 99 0 111 2 122 20 7 11 20 20 30 20 9 0 23 8 30
18 7 10 21 21 31 25 15 6 17 25 17 197 0 172 -2 191 -17 197 -10 4 -24 15 -31
25 -12 16 -30 18 -181 18 -116 0 -171 -4 -179 -12z m348 -208 c0 -193 -1 -200
-20 -200 -16 0 -20 7 -20 30 l0 30 -130 0 -130 0 0 -30 c0 -23 -4 -30 -20 -30
-19 0 -20 7 -20 200 l0 200 170 0 170 0 0 -200z m40 -20 c0 -113 -4 -180 -10
-180 -6 0 -10 67 -10 180 0 113 4 180 10 180 6 0 10 -67 10 -180z m-260 -165
c0 -14 5 -25 10 -25 6 0 10 11 10 25 0 14 5 25 10 25 6 0 10 -16 10 -35 0 -19
5 -35 10 -35 6 0 10 16 10 35 0 19 5 35 10 35 6 0 10 -27 10 -60 l0 -60 -70 0
-70 0 0 60 0 60 30 0 c25 0 30 -4 30 -25z m120 -35 c0 -33 -4 -60 -10 -60 -6
0 -10 27 -10 60 0 33 4 60 10 60 6 0 10 -27 10 -60z m40 0 c0 -33 -4 -60 -10
-60 -6 0 -10 27 -10 60 0 33 4 60 10 60 6 0 10 -27 10 -60z m-240 -10 c0 -5
-9 -10 -20 -10 -11 0 -20 5 -20 10 0 6 9 10 20 10 11 0 20 -4 20 -10z m300 0
c0 -5 -9 -10 -20 -10 -11 0 -20 5 -20 10 0 6 9 10 20 10 11 0 20 -4 20 -10z"/>
<path d="M174 506 c-3 -8 -4 -25 -2 -38 3 -23 5 -23 128 -23 l125 0 0 35 0 35
-123 3 c-100 2 -123 0 -128 -12z m236 -26 c0 -19 -7 -20 -110 -20 -103 0 -110
1 -110 20 0 19 7 20 110 20 103 0 110 -1 110 -20z"/>
<path d="M174 406 c-10 -26 4 -48 28 -44 33 4 33 52 0 56 -13 2 -25 -3 -28
-12z m36 -16 c0 -5 -4 -10 -10 -10 -5 0 -10 5 -10 10 0 6 5 10 10 10 6 0 10
-4 10 -10z"/>
<path d="M254 406 c-13 -33 4 -47 48 -44 38 3 43 6 43 28 0 22 -5 25 -43 28
-31 2 -44 -1 -48 -12z m76 -16 c0 -5 -13 -10 -30 -10 -16 0 -30 5 -30 10 0 6
14 10 30 10 17 0 30 -4 30 -10z"/>
<path d="M374 406 c-10 -26 4 -48 28 -44 33 4 33 52 0 56 -13 2 -25 -3 -28
-12z m36 -16 c0 -5 -4 -10 -10 -10 -5 0 -10 5 -10 10 0 6 5 10 10 10 6 0 10
-4 10 -10z"/>
<path d="M174 326 c-10 -26 4 -48 28 -44 33 4 33 52 0 56 -13 2 -25 -3 -28
-12z m36 -16 c0 -5 -4 -10 -10 -10 -5 0 -10 5 -10 10 0 6 5 10 10 10 6 0 10
-4 10 -10z"/>
<path d="M254 326 c-13 -33 4 -47 48 -44 38 3 43 6 43 28 0 22 -5 25 -43 28
-31 2 -44 -1 -48 -12z m76 -16 c0 -5 -13 -10 -30 -10 -16 0 -30 5 -30 10 0 6
14 10 30 10 17 0 30 -4 30 -10z"/>
<path d="M374 326 c-10 -26 4 -48 28 -44 33 4 33 52 0 56 -13 2 -25 -3 -28
-12z m36 -16 c0 -5 -4 -10 -10 -10 -5 0 -10 5 -10 10 0 6 5 10 10 10 6 0 10
-4 10 -10z"/>
<path d="M190 250 c0 -6 43 -10 110 -10 67 0 110 4 110 10 0 6 -43 10 -110 10
-67 0 -110 -4 -110 -10z"/>
</g>
</svg>
